<svg xmlns="http://www.w3.org/2000/svg" width="440" height="260" viewBox="0 0 440 260">
<style>text{font-family:sans-serif;fill:#222}.t{font-size:12px;font-weight:700}.l{font-size:9px}.s{font-size:8px;fill:#555}.k{font-size:16px;font-weight:700;fill:#1f6f8b}.a{stroke:#999;stroke-width:.6}</style>
<rect width="100%" height="100%" fill="#fff"/>
<text x="8" y="16" class="t">Conversion rate % by age band</text><line x1="36" y1="226" x2="430" y2="226" class="a"/><text x="4" y="28" class="s">conv %</text><rect x="44" y="129" width="48" height="97" fill="#1f6f8b"/><text x="69" y="126" class="s" text-anchor="middle">24.0%</text><rect x="110" y="177" width="48" height="49" fill="#1f6f8b"/><text x="134" y="174" class="s" text-anchor="middle">12.2%</text><rect x="176" y="191" width="48" height="35" fill="#1f6f8b"/><text x="200" y="188" class="s" text-anchor="middle">8.7%</text><rect x="241" y="191" width="48" height="35" fill="#1f6f8b"/><text x="266" y="188" class="s" text-anchor="middle">8.6%</text><rect x="307" y="171" width="48" height="55" fill="#1f6f8b"/><text x="332" y="168" class="s" text-anchor="middle">13.6%</text><rect x="373" y="34" width="48" height="192" fill="#1f6f8b"/><text x="397" y="31" class="s" text-anchor="middle">47.3%</text><text x="69" y="238" class="l" text-anchor="middle">17-24</text><text x="134" y="238" class="l" text-anchor="middle">25-34</text><text x="200" y="238" class="l" text-anchor="middle">35-44</text><text x="266" y="238" class="l" text-anchor="middle">45-54</text><text x="332" y="238" class="l" text-anchor="middle">55-64</text><text x="397" y="238" class="l" text-anchor="middle">65+</text><text x="33" y="133" class="s" text-anchor="end">24</text><text x="33" y="37" class="s" text-anchor="end">47</text>
</svg>
